<?xml version="1.0" encoding="UTF-8"?>
<svg id="Layer_1" data-name="Layer 1" xmlns="http://www.w3.org/2000/svg" viewBox="0 0 5675.62 841.89">
  <defs>
    <style>
      .cls-1 {
        fill: #ef3a4f;
      }

      .cls-2 {
        isolation: isolate;
      }

      .cls-3 {
        fill: none;
        stroke: #ef3a4f;
        stroke-miterlimit: 10;
        stroke-width: 4px;
      }
    </style>
  </defs>
  <path d="M194.14,576.74c-91.24,0-151.06-72.73-151.06-154.93v-.86c0-82.2,60.68-155.79,151.92-155.79s151.06,72.73,151.06,154.93q.43.43,0,.86c0,82.2-60.68,155.79-151.92,155.79ZM322.82,420.95c0-74.45-54.23-135.56-128.68-135.56s-127.82,60.25-127.82,134.7v.86c0,74.45,54.23,135.56,128.68,135.56s127.82-60.25,127.82-134.7v-.86Z"/>
  <path d="M1234.15,290.98v123.52h170.42v20.66h-170.42v136.42h-22.38v-301.25h212.17v20.66h-189.79Z"/>
  <g class="cls-2">
    <g class="cls-2">
      <path d="M1986.09,501.23c-47.49,0-78.62-37.86-78.62-80.64v-.45c0-42.78,31.58-81.09,79.07-81.09s78.62,37.86,78.62,80.64q.22.22,0,.45c0,42.78-31.58,81.09-79.07,81.09ZM2053.07,420.14c0-38.75-28.22-70.56-66.98-70.56s-66.53,31.36-66.53,70.11v.45c0,38.75,28.22,70.56,66.98,70.56s66.53-31.36,66.53-70.11v-.45Z"/>
      <path d="M2241,498.54v-136.19l-62.05,90.27h-.9l-62.05-90.27v136.19h-11.2v-156.8h10.98l62.94,92.74,62.94-92.74h10.98v156.8h-11.65Z"/>
      <path d="M2370.92,501.23c-47.49,0-78.62-37.86-78.62-80.64v-.45c0-42.78,31.58-81.09,79.07-81.09s78.62,37.86,78.62,80.64q.22.22,0,.45c0,42.78-31.58,81.09-79.07,81.09ZM2437.9,420.14c0-38.75-28.22-70.56-66.98-70.56s-66.53,31.36-66.53,70.11v.45c0,38.75,28.22,70.56,66.98,70.56s66.53-31.36,66.53-70.11v-.45Z"/>
      <path d="M2532.42,352.49v146.05h-11.65v-146.05h-54.66v-10.75h120.96v10.75h-54.66Z"/>
      <path d="M2733.35,498.54l-19.94-43.9h-92.51l-19.94,43.9h-12.1l73.02-157.92h11.2l73.02,157.92h-12.77ZM2667.27,353.39l-41.44,90.72h82.66l-41.22-90.72Z"/>
      <path d="M2900.9,498.54l-110.43-139.33v139.33h-11.2v-156.8h10.98l108.19,136.42v-136.42h11.2v156.8h-8.74Z"/>
      <path d="M2957.8,498.54v-156.8h11.65v156.8h-11.65Z"/>
    </g>
    <g class="cls-2">
      <path d="M3102.49,420.59v-.45c0-45.7,35.17-81.54,82.66-81.54,32.03,0,52.64,13.44,66.53,32.7l-32.71,25.31c-8.96-11.2-19.26-18.37-34.27-18.37-21.95,0-37.41,18.59-37.41,41.44v.45c0,23.52,15.46,41.89,37.41,41.89,16.35,0,25.98-7.62,35.39-19.04l32.7,23.3c-14.78,20.38-34.72,35.39-69.44,35.39-44.8,0-80.86-34.27-80.86-81.09Z"/>
      <path d="M3324.25,340.62h41.89l66.75,157.92h-46.59l-11.42-28h-60.48l-11.2,28h-45.7l66.75-157.92ZM3362.33,436.71l-17.47-44.58-17.7,44.58h35.17Z"/>
      <path d="M3448.12,341.74h74.14c23.97,0,40.54,6.27,51.07,17.02,9.18,8.96,13.89,21.06,13.89,36.51v.45c0,23.97-12.77,39.87-32.26,48.16l37.41,54.66h-50.18l-31.58-47.49h-19.04v47.49h-43.46v-156.8ZM3520.25,417c14.78,0,23.29-7.17,23.29-18.59v-.45c0-12.32-8.96-18.59-23.52-18.59h-28.45v37.63h28.67Z"/>
      <path d="M3610.07,341.74h43.68v156.8h-43.68v-156.8Z"/>
      <path d="M3682.42,341.74h40.54l64.51,82.88v-82.88h43.01v156.8h-38.08l-66.98-86.02v86.02h-43.01v-156.8Z"/>
      <path d="M3852.88,420.59v-.45c0-45.7,35.84-81.54,84.45-81.54,27.55,0,47.04,8.51,63.62,22.85l-25.54,30.69c-11.2-9.41-22.4-14.78-37.86-14.78-22.62,0-40.1,19.04-40.1,43.01v.45c0,25.31,17.7,43.46,42.56,43.46,10.53,0,18.59-2.24,25.09-6.5v-19.04h-30.91v-31.81h72.13v70.56c-16.58,13.66-39.65,24.19-68.1,24.19-48.83,0-85.34-33.6-85.34-81.09Z"/>
    </g>
    <g class="cls-2">
      <path d="M4114.96,352.49v64.29h88.7v10.75h-88.7v71.01h-11.65v-156.8h110.43v10.75h-98.78Z"/>
      <path d="M4317.46,501.23c-47.49,0-78.62-37.86-78.62-80.64v-.45c0-42.78,31.58-81.09,79.07-81.09s78.62,37.86,78.62,80.64q.22.22,0,.45c0,42.78-31.58,81.09-79.07,81.09ZM4384.43,420.14c0-38.75-28.22-70.56-66.98-70.56s-66.53,31.36-66.53,70.11v.45c0,38.75,28.22,70.56,66.98,70.56s66.53-31.36,66.53-70.11v-.45Z"/>
      <path d="M4498,501c-37.63,0-64.29-23.74-64.29-67.65v-91.62h11.65v90.5c0,36.96,19.94,58.24,53.09,58.24s52.19-19.26,52.19-57.12v-91.62h11.65v90.27c0,45.02-26.21,68.99-64.29,68.99Z"/>
      <path d="M4728.04,498.54l-110.43-139.33v139.33h-11.2v-156.8h10.98l108.19,136.42v-136.42h11.2v156.8h-8.74Z"/>
      <path d="M4835.56,498.54h-52.19v-156.8h52.19c49.28,0,83.33,33.82,83.33,77.95v.45c0,44.13-34.05,78.4-83.33,78.4ZM4906.79,420.14c0-37.18-27.55-67.65-71.23-67.65h-40.54v135.29h40.54c43.68,0,71.23-29.79,71.23-67.2v-.45Z"/>
      <path d="M5079.5,498.54l-19.94-43.9h-92.51l-19.94,43.9h-12.1l73.02-157.92h11.2l73.02,157.92h-12.77ZM5013.42,353.39l-41.44,90.72h82.66l-41.22-90.72Z"/>
      <path d="M5160.36,352.49v146.05h-11.65v-146.05h-54.66v-10.75h120.96v10.75h-54.66Z"/>
      <path d="M5251.98,498.54v-156.8h11.65v156.8h-11.65Z"/>
      <path d="M5383.46,501.23c-47.49,0-78.62-37.86-78.62-80.64v-.45c0-42.78,31.58-81.09,79.07-81.09s78.62,37.86,78.62,80.64q.22.22,0,.45c0,42.78-31.58,81.09-79.07,81.09ZM5450.43,420.14c0-38.75-28.22-70.56-66.98-70.56s-66.53,31.36-66.53,70.11v.45c0,38.75,28.22,70.56,66.98,70.56s66.53-31.36,66.53-70.11v-.45Z"/>
      <path d="M5623.81,498.54l-110.43-139.33v139.33h-11.2v-156.8h10.98l108.19,136.42v-136.42h11.2v156.8h-8.74Z"/>
    </g>
  </g>
  <path d="M474.28,422.67v-1.72c0-175.37,134.97-312.92,317.22-312.92,122.93,0,202.03,51.58,255.32,125.51l-125.51,97.14c-34.39-42.98-73.93-70.49-131.53-70.49-84.25,0-143.57,71.35-143.57,159.04v1.72c0,90.27,59.32,160.76,143.57,160.76,62.76,0,99.72-29.23,135.83-73.07l125.51,89.41c-56.74,78.23-133.25,135.83-266.5,135.83-171.93,0-310.34-131.53-310.34-311.21Z"/>
  <path class="cls-1" d="M1076.14,426.9c-3.78-4.25-3.78-10.66-.01-14.92,3.51-3.97,6.94-7.86,10.29-11.67,15.14-17.25,14.38-46.11-2.09-66.49h0c-17.55-21.66-48.21-28.28-68.74-13.03-7.42,5.52-15.13,11.27-23.11,17.28-24.35,18.32-50.36,39.09-77.34,61.71-12.33,10.34-12.27,29.32.12,39.58,36.27,30.02,70.32,55.85,100.19,77.86,20.4,15,50.91,8.42,68.45-13.02,16.53-20.25,17.4-48.86,2.37-65.87-3.3-3.73-6.68-7.55-10.13-11.43Z"/>
  <line class="cls-3" x1="1671.89" y1="108.03" x2="1671.89" y2="733.88"/>
</svg>