<?xml version="1.0" encoding="UTF-8"?>
<svg id="Layer_1" data-name="Layer 1" xmlns="http://www.w3.org/2000/svg" viewBox="0 0 3797.46 330.59">
  <defs>
    <style>
      .cls-1 {
        isolation: isolate;
      }
    </style>
  </defs>
  <g class="cls-1">
    <g class="cls-1">
      <path d="M114.82,246.38c-47.49,0-78.62-37.86-78.62-80.64v-.45c0-42.78,31.58-81.09,79.07-81.09s78.62,37.86,78.62,80.64q.22.22,0,.45c0,42.78-31.58,81.09-79.07,81.09ZM181.79,165.3c0-38.75-28.22-70.56-66.98-70.56s-66.53,31.36-66.53,70.11v.45c0,38.75,28.22,70.56,66.98,70.56s66.53-31.36,66.53-70.11v-.45Z"/>
      <path d="M369.72,243.7V107.51l-62.05,90.27h-.9l-62.05-90.27v136.19h-11.2V86.9h10.98l62.94,92.74,62.94-92.74h10.98v156.8h-11.65Z"/>
      <path d="M499.64,246.38c-47.49,0-78.62-37.86-78.62-80.64v-.45c0-42.78,31.58-81.09,79.07-81.09s78.62,37.86,78.62,80.64q.22.22,0,.45c0,42.78-31.58,81.09-79.07,81.09ZM566.62,165.3c0-38.75-28.22-70.56-66.98-70.56s-66.53,31.36-66.53,70.11v.45c0,38.75,28.22,70.56,66.98,70.56s66.53-31.36,66.53-70.11v-.45Z"/>
      <path d="M661.15,97.65v146.05h-11.65V97.65h-54.66v-10.75h120.96v10.75h-54.66Z"/>
      <path d="M862.07,243.7l-19.94-43.9h-92.51l-19.94,43.9h-12.1l73.02-157.92h11.2l73.02,157.92h-12.77ZM795.99,98.55l-41.44,90.72h82.66l-41.22-90.72Z"/>
      <path d="M1029.62,243.7l-110.43-139.33v139.33h-11.2V86.9h10.98l108.19,136.42V86.9h11.2v156.8h-8.74Z"/>
      <path d="M1086.52,243.7V86.9h11.65v156.8h-11.65Z"/>
    </g>
    <g class="cls-1">
      <path d="M1231.21,165.75v-.45c0-45.7,35.17-81.54,82.66-81.54,32.03,0,52.64,13.44,66.53,32.7l-32.71,25.31c-8.96-11.2-19.26-18.37-34.27-18.37-21.95,0-37.41,18.59-37.41,41.44v.45c0,23.52,15.46,41.89,37.41,41.89,16.35,0,25.98-7.62,35.39-19.04l32.7,23.3c-14.78,20.38-34.72,35.39-69.44,35.39-44.8,0-80.86-34.27-80.86-81.09Z"/>
      <path d="M1452.97,85.78h41.89l66.75,157.92h-46.59l-11.42-28h-60.48l-11.2,28h-45.7l66.75-157.92ZM1491.05,181.87l-17.47-44.58-17.7,44.58h35.17Z"/>
      <path d="M1576.84,86.9h74.14c23.97,0,40.54,6.27,51.07,17.02,9.18,8.96,13.89,21.06,13.89,36.51v.45c0,23.97-12.77,39.87-32.26,48.16l37.41,54.66h-50.18l-31.58-47.49h-19.04v47.49h-43.46V86.9ZM1648.97,162.16c14.78,0,23.29-7.17,23.29-18.59v-.45c0-12.32-8.96-18.59-23.52-18.59h-28.45v37.63h28.67Z"/>
      <path d="M1738.79,86.9h43.68v156.8h-43.68V86.9Z"/>
      <path d="M1811.14,86.9h40.54l64.51,82.88v-82.88h43.01v156.8h-38.08l-66.98-86.02v86.02h-43.01V86.9Z"/>
      <path d="M1981.6,165.75v-.45c0-45.7,35.84-81.54,84.45-81.54,27.55,0,47.04,8.51,63.62,22.85l-25.54,30.69c-11.2-9.41-22.4-14.78-37.86-14.78-22.62,0-40.1,19.04-40.1,43.01v.45c0,25.31,17.7,43.46,42.56,43.46,10.53,0,18.59-2.24,25.09-6.5v-19.04h-30.91v-31.81h72.13v70.56c-16.58,13.66-39.65,24.19-68.1,24.19-48.83,0-85.34-33.6-85.34-81.09Z"/>
    </g>
    <g class="cls-1">
      <path d="M2243.68,97.65v64.29h88.7v10.75h-88.7v71.01h-11.65V86.9h110.43v10.75h-98.78Z"/>
      <path d="M2446.18,246.38c-47.49,0-78.62-37.86-78.62-80.64v-.45c0-42.78,31.58-81.09,79.07-81.09s78.62,37.86,78.62,80.64q.22.22,0,.45c0,42.78-31.58,81.09-79.07,81.09ZM2513.16,165.3c0-38.75-28.22-70.56-66.98-70.56s-66.53,31.36-66.53,70.11v.45c0,38.75,28.22,70.56,66.98,70.56s66.53-31.36,66.53-70.11v-.45Z"/>
      <path d="M2626.72,246.16c-37.63,0-64.29-23.74-64.29-67.65v-91.62h11.65v90.5c0,36.96,19.94,58.24,53.09,58.24s52.19-19.26,52.19-57.12v-91.62h11.65v90.27c0,45.02-26.21,68.99-64.29,68.99Z"/>
      <path d="M2856.77,243.7l-110.43-139.33v139.33h-11.2V86.9h10.98l108.19,136.42V86.9h11.2v156.8h-8.74Z"/>
      <path d="M2964.29,243.7h-52.19V86.9h52.19c49.28,0,83.33,33.82,83.33,77.95v.45c0,44.13-34.05,78.4-83.33,78.4ZM3035.52,165.3c0-37.18-27.55-67.65-71.23-67.65h-40.54v135.29h40.54c43.68,0,71.23-29.79,71.23-67.2v-.45Z"/>
      <path d="M3208.22,243.7l-19.94-43.9h-92.51l-19.94,43.9h-12.1l73.02-157.92h11.2l73.02,157.92h-12.77ZM3142.14,98.55l-41.44,90.72h82.66l-41.22-90.72Z"/>
      <path d="M3289.08,97.65v146.05h-11.65V97.65h-54.66v-10.75h120.96v10.75h-54.66Z"/>
      <path d="M3380.7,243.7V86.9h11.65v156.8h-11.65Z"/>
      <path d="M3512.18,246.38c-47.49,0-78.62-37.86-78.62-80.64v-.45c0-42.78,31.58-81.09,79.07-81.09s78.62,37.86,78.62,80.64q.22.22,0,.45c0,42.78-31.58,81.09-79.07,81.09ZM3579.16,165.3c0-38.75-28.22-70.56-66.98-70.56s-66.53,31.36-66.53,70.11v.45c0,38.75,28.22,70.56,66.98,70.56s66.53-31.36,66.53-70.11v-.45Z"/>
      <path d="M3752.53,243.7l-110.43-139.33v139.33h-11.2V86.9h10.98l108.19,136.42V86.9h11.2v156.8h-8.74Z"/>
    </g>
  </g>
</svg>