<?xml version="1.0" encoding="UTF-8"?>
<svg id="Layer_1" data-name="Layer 1" xmlns="http://www.w3.org/2000/svg" viewBox="0 0 5675.62 841.89">
  <defs>
    <style>
      .cls-1 {
        font-family: GothamHTF-Black, 'Gotham HTF';
        font-weight: 800;
      }

      .cls-1, .cls-2, .cls-3 {
        isolation: isolate;
      }

      .cls-1, .cls-3 {
        font-size: 224px;
      }

      .cls-4 {
        fill: #ef3a4f;
      }

      .cls-5 {
        letter-spacing: -.02em;
      }

      .cls-6 {
        letter-spacing: -.05em;
      }

      .cls-7 {
        letter-spacing: 0em;
      }

      .cls-3 {
        font-family: GothamHTF-Light, 'Gotham HTF';
        font-weight: 300;
      }

      .cls-8 {
        letter-spacing: -.09em;
      }

      .cls-9 {
        fill: none;
        stroke: #ef3a4f;
        stroke-miterlimit: 10;
        stroke-width: 4px;
      }

      .cls-10 {
        letter-spacing: -.04em;
      }

      .cls-11 {
        letter-spacing: 0em;
      }
    </style>
  </defs>
  <path d="M260.69,576.74c-91.24,0-151.06-72.73-151.06-154.93v-.86c0-82.2,60.68-155.79,151.92-155.79s151.06,72.73,151.06,154.93q.43.43,0,.86c0,82.2-60.68,155.79-151.92,155.79ZM389.37,420.95c0-74.45-54.23-135.56-128.68-135.56s-127.82,60.25-127.82,134.7v.86c0,74.45,54.23,135.56,128.68,135.56s127.82-60.25,127.82-134.7v-.86Z"/>
  <path d="M1300.7,290.98v123.52h170.42v20.66h-170.42v136.42h-22.38v-301.25h212.17v20.66h-189.79Z"/>
  <g class="cls-2">
    <text class="cls-3" transform="translate(1957.67 498.54)"><tspan x="0" y="0">OM</tspan><tspan class="cls-6" x="384.83" y="0">O</tspan><tspan class="cls-8" x="562.91" y="0">T</tspan><tspan x="687.9" y="0">ANI </tspan></text>
    <text class="cls-1" transform="translate(3160.53 498.54)"><tspan class="cls-11" x="0" y="0">C</tspan><tspan class="cls-7" x="162.18" y="0">ARING </tspan></text>
    <text class="cls-3" transform="translate(4146.57 498.54)"><tspan class="cls-5" x="0" y="0">F</tspan><tspan x="142.46" y="0">OUN</tspan><tspan class="cls-10" x="680.06" y="0">D</tspan><tspan class="cls-8" x="845.14" y="0">A</tspan><tspan x="1001.94" y="0">TION</tspan></text>
  </g>
  <path d="M540.83,422.67v-1.72c0-175.37,134.97-312.92,317.22-312.92,122.93,0,202.03,51.58,255.32,125.51l-125.51,97.14c-34.39-42.98-73.93-70.49-131.53-70.49-84.25,0-143.57,71.35-143.57,159.04v1.72c0,90.27,59.32,160.76,143.57,160.76,62.76,0,99.72-29.23,135.83-73.07l125.51,89.41c-56.74,78.23-133.25,135.83-266.5,135.83-171.93,0-310.34-131.53-310.34-311.21Z"/>
  <path class="cls-4" d="M1142.69,426.9c-3.78-4.25-3.78-10.66-.01-14.92,3.51-3.97,6.94-7.86,10.29-11.67,15.14-17.25,14.38-46.11-2.09-66.49h0c-17.55-21.66-48.21-28.28-68.74-13.03-7.42,5.52-15.13,11.27-23.11,17.28-24.35,18.32-50.36,39.09-77.34,61.71-12.33,10.34-12.27,29.32.12,39.58,36.27,30.02,70.32,55.85,100.19,77.86,20.4,15,50.91,8.42,68.45-13.02,16.53-20.25,17.4-48.86,2.37-65.87-3.3-3.73-6.68-7.55-10.13-11.43Z"/>
  <line class="cls-9" x1="1738.44" y1="108.03" x2="1738.44" y2="733.88"/>
</svg>